<?xml version="1.0" encoding="UTF-8"?><svg id="Layer_2" xmlns="http://www.w3.org/2000/svg" xmlns:xlink="http://www.w3.org/1999/xlink" viewBox="0 0 837.2 756.15"><defs><style>.cls-1{fill:url(#linear-gradient-2);}.cls-2{fill:url(#linear-gradient);}</style><linearGradient id="linear-gradient" x1="111.6" y1="754.09" x2="325.8" y2="413.43" gradientUnits="userSpaceOnUse"><stop offset="0" stop-color="#fff"/><stop offset=".73" stop-color="#b3b3b3"/></linearGradient><linearGradient id="linear-gradient-2" x1="288.95" y1="522.18" x2="607.8" y2="359.97" gradientUnits="userSpaceOnUse"><stop offset="0" stop-color="#fff"/><stop offset="1" stop-color="#fff"/></linearGradient></defs><g id="graphics"><g><path class="cls-2" d="M402.41,595.06C28.32,290.71-154.42,838.92,162.15,745.22c94.92-34.6,173.82-94.13,240.26-150.16Z"/><path class="cls-1" d="M833.79,617.5c-28.75-145.72-137.65-397.49-277.41-551.36-26.3-28.95-102.58-92.32-183.75-54.35-86.66,40.54-136.26,155.36-76.89,328.72,60.61,176.97,244.35,326.15,336.57,375.3,123.53,65.84,225.01,20.94,201.48-98.31Zm-318.78-98.76c-90.31-7.34-192.95-169.22-138.48-257.22,37.11-59.96,116.6-31.73,163.73,62.71,54.32,108.88,44.32,200.16-25.24,194.5Z"/></g></g></svg>